<svg xmlns="http://www.w3.org/2000/svg" viewBox="0 0 500 500"><g id="freepik--Chart--inject-2"><path d="M247.48,157l-45.25-41.85a61.64,61.64,0,1,0,97.09,75.21Z" style="fill:#878787"></path><path d="M247.48,219.12a62.14,62.14,0,0,1-45.62-104.35.5.5,0,0,1,.71,0l45.22,41.83,51.8,33.32a.51.51,0,0,1,.22.32.47.47,0,0,1-.07.38A62,62,0,0,1,247.48,219.12ZM202.26,115.81a61.14,61.14,0,1,0,96.37,74.65l-51.42-33.08-.07,0Z" style="fill:#263238"></path><path d="M202.23,115.11,247.48,157l51.84,33.36a61.64,61.64,0,0,0-97.09-75.21Z" style="fill:#FFFFFF"></path><path d="M299.32,190.81a.54.54,0,0,1-.27-.07l-51.84-33.36-45.32-41.91a.49.49,0,0,1,0-.7,62.14,62.14,0,0,1,97.88,75.82A.5.5,0,0,1,299.32,190.81Zm-96.38-75.73,44.88,41.52,51.35,33a61.14,61.14,0,0,0-96.23-74.54Z" style="fill:#263238"></path><path d="M247.48,157l-14.35,60a61.59,61.59,0,0,0,66.19-26.6Z" style="fill:#b8b8b8"></path><path d="M247.48,219.12A62.75,62.75,0,0,1,233,217.41a.52.52,0,0,1-.31-.23.5.5,0,0,1-.06-.38l14.36-60a.46.46,0,0,1,.3-.35.51.51,0,0,1,.45,0l51.84,33.35a.51.51,0,0,1,.22.32.47.47,0,0,1-.07.38A62,62,0,0,1,247.48,219.12Zm-13.75-2.57a61.1,61.1,0,0,0,64.9-26.09L247.8,157.77Z" style="fill:#263238"></path><path d="M233.05,216.9,247.48,157l-61.63-1c0,.33,0,.64,0,1A61.67,61.67,0,0,0,233.05,216.9Z" style="fill:#fff"></path><path d="M233.05,217.4h-.12A61.93,61.93,0,0,1,185.33,157c0-.19,0-.38,0-.57V156a.49.49,0,0,1,.15-.35.75.75,0,0,1,.36-.15l61.63,1a.55.55,0,0,1,.39.2.52.52,0,0,1,.09.42L233.54,217A.5.5,0,0,1,233.05,217.4Zm-46.71-60.89c0,.15,0,.3,0,.45a60.93,60.93,0,0,0,46.35,59.34l14.17-58.85Z" style="fill:#263238"></path><path d="M287.73,132.72a.5.5,0,0,1-.31-.9l30-23a.5.5,0,0,1,.61.8l-30,23A.47.47,0,0,1,287.73,132.72Z" style="fill:#263238"></path><path d="M178.61,209.74a.5.5,0,0,1-.29-.9l27.28-19.79a.5.5,0,1,1,.58.81l-27.27,19.79A.55.55,0,0,1,178.61,209.74Z" style="fill:#263238"></path><path d="M202.68,136.46a.52.52,0,0,1-.21,0l-35.3-16a.5.5,0,0,1-.25-.66.51.51,0,0,1,.67-.25l35.3,16a.5.5,0,0,1,.25.66A.52.52,0,0,1,202.68,136.46Z" style="fill:#263238"></path><path d="M302.35,237.47H278.64a.51.51,0,0,1-.47-.32L264.8,203a.5.5,0,0,1,.28-.65.51.51,0,0,1,.65.28L279,236.47h23.37a.5.5,0,0,1,0,1Z" style="fill:#263238"></path><circle cx="247.48" cy="156.96" r="42.16" style="fill:#263238"></circle><path d="M247.48,199.62A42.66,42.66,0,1,1,290.14,157,42.7,42.7,0,0,1,247.48,199.62Zm0-84.31A41.66,41.66,0,1,0,289.14,157,41.7,41.7,0,0,0,247.48,115.31Z" style="fill:#263238"></path><path d="M246.36,185.8v-4.74q-5.82-.23-8.66-3.78t-3.13-10.09l7.22-1.42a23.19,23.19,0,0,0,.62,4.69,6.54,6.54,0,0,0,1.61,3.13,3.93,3.93,0,0,0,2.9,1.1,3.34,3.34,0,0,0,2.91-1.21,5.17,5.17,0,0,0,.87-3.08,8.22,8.22,0,0,0-1.38-4.91,23.2,23.2,0,0,0-3.58-3.83l-5.81-5.08a21.22,21.22,0,0,1-2.77-3,12.48,12.48,0,0,1-1.86-3.5,13.86,13.86,0,0,1-.68-4.54q0-5.13,2.94-8a11.72,11.72,0,0,1,7.9-3.19v-4.57h2.42v4.51a10.57,10.57,0,0,1,4.74,1.27,8.8,8.8,0,0,1,3,2.82,12.91,12.91,0,0,1,1.64,3.87,23.05,23.05,0,0,1,.65,4.46L250.76,148a29.48,29.48,0,0,0-.45-3.87,5.44,5.44,0,0,0-1.27-2.71,3.32,3.32,0,0,0-2.74-.87,3.7,3.7,0,0,0-2.9,1.24,4.51,4.51,0,0,0-1,3,6.59,6.59,0,0,0,1.07,3.92,19.81,19.81,0,0,0,2.65,3l5.76,5a31.31,31.31,0,0,1,3.35,3.55,16.06,16.06,0,0,1,2.49,4.29,14.71,14.71,0,0,1,.93,5.41,11.91,11.91,0,0,1-1.22,5.45A9.86,9.86,0,0,1,254,179.2a11.64,11.64,0,0,1-5.25,1.81v4.79Z" style="fill:#FFFFFF"></path></g><g id="freepik--Bills--inject-2"><rect x="102.81" y="195.48" width="62.26" height="83.34" style="fill:#fff"></rect><path d="M165.45,279.19h-63V195.1h63Zm-62.26-.75H164.7V195.85H103.19Z" style="fill:#263238"></path><rect x="110.17" y="220.59" width="48.04" height="0.75" style="fill:#263238"></rect><rect x="110.17" y="232.36" width="48.04" height="0.75" style="fill:#263238"></rect><rect x="110.17" y="268.64" width="48.04" height="0.75" style="fill:#263238"></rect><rect x="139.7" y="221.46" width="0.75" height="50.5" style="fill:#263238"></rect><rect x="113.72" y="221.46" width="0.75" height="50.5" style="fill:#263238"></rect><rect x="152.94" y="221.46" width="0.75" height="50.5" style="fill:#263238"></rect><path d="M119.11,215.6v-12h3a6.37,6.37,0,0,1,1.44.15,2.81,2.81,0,0,1,1.11.49,2.28,2.28,0,0,1,.72.94,3.82,3.82,0,0,1,.25,1.5,3.54,3.54,0,0,1-.2,1.24,1.85,1.85,0,0,1-.58.82,2.2,2.2,0,0,1-1,.41,2.4,2.4,0,0,1,1.18.5,2.29,2.29,0,0,1,.7,1,4.18,4.18,0,0,1,.23,1.46,5,5,0,0,1-.22,1.52,2.77,2.77,0,0,1-.63,1.1,2.8,2.8,0,0,1-1.06.66,4.64,4.64,0,0,1-1.47.22Zm2.19-7.09H122a2.27,2.27,0,0,0,1-.19,1.07,1.07,0,0,0,.5-.6,3.12,3.12,0,0,0,.14-1,1.91,1.91,0,0,0-.22-1,1.07,1.07,0,0,0-.64-.47,3.76,3.76,0,0,0-1.1-.13h-.43Zm0,5.55h.83a1.6,1.6,0,0,0,1.35-.48,2.5,2.5,0,0,0,.35-1.49,3.27,3.27,0,0,0-.17-1.18,1.24,1.24,0,0,0-.56-.67,2.09,2.09,0,0,0-1-.22h-.76Z" style="fill:#263238"></path><path d="M127.42,215.6v-12h2.16v12Z" style="fill:#263238"></path><path d="M131.43,215.6v-12h2.19v10.48h2.9v1.51Z" style="fill:#263238"></path><path d="M137.6,215.6v-12h2.19v10.48h2.9v1.51Z" style="fill:#263238"></path><path d="M146.8,215.76a3.54,3.54,0,0,1-1.81-.42,2.62,2.62,0,0,1-1.1-1.24,5.45,5.45,0,0,1-.41-2l1.88-.36a6,6,0,0,0,.17,1.22,1.81,1.81,0,0,0,.43.83,1,1,0,0,0,.76.28.86.86,0,0,0,.76-.31,1.48,1.48,0,0,0,.22-.81,2.18,2.18,0,0,0-.36-1.29,5.75,5.75,0,0,0-.94-1l-1.51-1.33a4.34,4.34,0,0,1-1-1.22,3.38,3.38,0,0,1-.38-1.67,2.87,2.87,0,0,1,.83-2.19,3.23,3.23,0,0,1,2.27-.77,3.36,3.36,0,0,1,1.4.26,2.32,2.32,0,0,1,.9.72,3.4,3.4,0,0,1,.5,1.05,6.72,6.72,0,0,1,.2,1.23l-1.86.33a5.77,5.77,0,0,0-.13-1,1.4,1.4,0,0,0-.34-.7,1,1,0,0,0-.72-.25.9.9,0,0,0-.74.32,1.18,1.18,0,0,0-.26.79,1.79,1.79,0,0,0,.25,1,4.28,4.28,0,0,0,.72.81l1.5,1.32a6.26,6.26,0,0,1,1.26,1.45,3.76,3.76,0,0,1,.53,2,3,3,0,0,1-.38,1.52,2.69,2.69,0,0,1-1,1A3.07,3.07,0,0,1,146.8,215.76Z" style="fill:#263238"></path><rect x="96.61" y="191.04" width="62.26" height="83.34" transform="translate(54.25 -22.38) rotate(12.69)" style="fill:#fff"></rect><path d="M149.23,280.65l-.36-.08L87.76,266.8l.09-.36,18.39-81.67,61.47,13.84ZM88.66,266.24l60,13.51,18.15-80.57-60-13.52Z" style="fill:#263238"></path><rect x="131.16" y="192.96" width="0.75" height="48.04" transform="translate(-109.04 297.62) rotate(-77.31)" style="fill:#263238"></rect><rect x="128.57" y="204.43" width="0.75" height="48.05" transform="translate(-122.26 304.05) rotate(-77.31)" style="fill:#263238"></rect><rect x="126.36" y="216.26" width="0.75" height="48.05" transform="translate(-135.52 311.13) rotate(-77.31)" style="fill:#263238"></rect><rect x="124.16" y="228.09" width="0.75" height="48.05" transform="translate(-148.78 318.21) rotate(-77.31)" style="fill:#263238"></rect><rect x="120.6" y="239.83" width="0.75" height="48.04" transform="translate(-163.01 323.89) rotate(-77.31)" style="fill:#263238"></rect><rect x="106.37" y="243.01" width="50.5" height="0.75" transform="translate(-134.67 318.54) rotate(-77.36)" style="fill:#263238"></rect><rect x="81.02" y="237.3" width="50.5" height="0.75" transform="translate(-148.9 289.34) rotate(-77.36)" style="fill:#263238"></rect><rect x="119.28" y="245.91" width="50.5" height="0.75" transform="translate(-127.42 333.41) rotate(-77.36)" style="fill:#263238"></rect><path d="M118,208.43l2.64-11.7,2.87.64a6.76,6.76,0,0,1,1.38.47,3,3,0,0,1,1,.72,2.23,2.23,0,0,1,.49,1.08,3.8,3.8,0,0,1-.08,1.51,3.49,3.49,0,0,1-.47,1.17,1.87,1.87,0,0,1-.75.68,2.11,2.11,0,0,1-1,.18,2.48,2.48,0,0,1,1,.74,2.29,2.29,0,0,1,.46,1.12,4.28,4.28,0,0,1-.09,1.48,4.9,4.9,0,0,1-.55,1.43,2.6,2.6,0,0,1-2,1.34,4.28,4.28,0,0,1-1.48-.11Zm3.7-6.44.72.16a2.12,2.12,0,0,0,1,0,1.08,1.08,0,0,0,.62-.47,2.91,2.91,0,0,0,.35-.95,1.82,1.82,0,0,0,0-1,1.1,1.1,0,0,0-.52-.61,4.3,4.3,0,0,0-1-.36l-.42-.09Zm-1.22,5.42.81.18a1.61,1.61,0,0,0,1.42-.18,2.51,2.51,0,0,0,.67-1.37,3.38,3.38,0,0,0,.09-1.18,1.28,1.28,0,0,0-.4-.79,2.08,2.08,0,0,0-1-.44l-.74-.17Z" style="fill:#FFFFFF"></path><path d="M126.1,210.25l2.64-11.7,2.11.48-2.64,11.7Z" style="fill:#FFFFFF"></path><path d="M130,211.13l2.63-11.7,2.14.48-2.3,10.23,2.83.64-.34,1.47Z" style="fill:#FFFFFF"></path><path d="M136,212.49l2.63-11.7,2.14.48-2.3,10.23,2.83.63-.33,1.48Z" style="fill:#FFFFFF"></path><path d="M145,214.67a3.58,3.58,0,0,1-1.67-.81,2.62,2.62,0,0,1-.79-1.45,5.22,5.22,0,0,1,0-2l1.92,0a5.63,5.63,0,0,0-.11,1.24,1.81,1.81,0,0,0,.24.9,1,1,0,0,0,.68.44.87.87,0,0,0,.81-.14,1.35,1.35,0,0,0,.39-.74,2.19,2.19,0,0,0-.06-1.33,5.25,5.25,0,0,0-.71-1.19L144.52,208a4.76,4.76,0,0,1-.72-1.42,3.4,3.4,0,0,1,0-1.71,2.85,2.85,0,0,1,1.29-2,3.2,3.2,0,0,1,2.38-.26,3.39,3.39,0,0,1,1.31.57,2.26,2.26,0,0,1,.72.89,3.27,3.27,0,0,1,.25,1.13,5.92,5.92,0,0,1-.06,1.25l-1.9-.09a5.47,5.47,0,0,0,.1-1,1.35,1.35,0,0,0-.18-.75.94.94,0,0,0-.64-.41.91.91,0,0,0-.8.15,1.2,1.2,0,0,0-.43.72,1.78,1.78,0,0,0,0,1,3.65,3.65,0,0,0,.53.94l1.17,1.62a6.18,6.18,0,0,1,.91,1.7,3.72,3.72,0,0,1,.07,2.08,3,3,0,0,1-.7,1.41,2.74,2.74,0,0,1-1.26.79A3.27,3.27,0,0,1,145,214.67Z" style="fill:#FFFFFF"></path></g><g id="freepik--Car--inject-2"><path d="M394.05,245.05v17.31H326.36V245.05H313.64v25.3a3.55,3.55,0,0,0,3.55,3.56h5.62a3.55,3.55,0,0,0,3.55-3.56v-1.16h6.17l2.88-1.84h49.33l3.67,2.1h5.64v.9a3.56,3.56,0,0,0,3.56,3.56h5.61a3.56,3.56,0,0,0,3.56-3.56v-25.3Z" style="fill:#263238"></path><path d="M403.22,274.28h-5.61a3.93,3.93,0,0,1-3.93-3.93v-.53h-5.27a.34.34,0,0,1-.19-.05l-3.58-2H335.52l-2.79,1.78a.36.36,0,0,1-.2.06h-5.79v.79a3.94,3.94,0,0,1-3.93,3.93h-5.62a3.93,3.93,0,0,1-3.93-3.93v-25.3a.38.38,0,0,1,.38-.38h12.72a.38.38,0,0,1,.38.38V262h66.94V245.05a.38.38,0,0,1,.37-.38h12.73a.38.38,0,0,1,.37.38v25.3A3.93,3.93,0,0,1,403.22,274.28Zm-14.71-5.21h5.54a.38.38,0,0,1,.38.38v.9a3.18,3.18,0,0,0,3.18,3.18h5.61a3.18,3.18,0,0,0,3.18-3.18V245.42h-12v16.94a.38.38,0,0,1-.38.38H326.36a.37.37,0,0,1-.37-.38V245.42H314v24.93a3.18,3.18,0,0,0,3.18,3.18h5.62a3.18,3.18,0,0,0,3.18-3.18v-1.16a.37.37,0,0,1,.37-.38h6.06l2.79-1.78a.47.47,0,0,1,.2-.06h49.33a.37.37,0,0,1,.18,0Z" style="fill:#263238"></path><path d="M404.15,232.59a51.4,51.4,0,0,0-4.6-5.26,1.1,1.1,0,0,1-.2-.28c-.84-1.6-8-13.36-9.23-15.69-2.3-4.29-4.14-3.64-6.6-4h-.21l-18.63-.94q-4.6-.22-9.21,0l-15.12.76c-4.21.21-8.27-.06-10.58,4.13-1.28,2.31-8.39,14.08-9.23,15.69a1.42,1.42,0,0,1-.2.28,51.49,51.49,0,0,0-4.61,5.26c-.52,1-2.62,5-2.62,5.77a119.79,119.79,0,0,0,2.64,20.7,7.51,7.51,0,0,0,5.23,5.45,1.82,1.82,0,0,0,.4.08h16.34a1.23,1.23,0,0,0,1.07-.61l3.86-6.68a1.22,1.22,0,0,1,.3-.34,9.28,9.28,0,0,1,5.71-1.94h22.57a9.28,9.28,0,0,1,5.71,1.94,1.22,1.22,0,0,1,.3.34L381.1,264a1.23,1.23,0,0,0,1.07.61h16.34a1.93,1.93,0,0,0,.4-.08,7.48,7.48,0,0,0,5.22-5.45,119.17,119.17,0,0,0,2.65-20.7C406.78,237.57,404.68,233.63,404.15,232.59ZM324,224.19a108.9,108.9,0,0,1,9.44-14.28,263.54,263.54,0,0,1,53.13-.13l8.93,14.41C375.16,222.22,324,224.19,324,224.19Z" style="fill:#FFFFFF"></path><path d="M398.51,265H382.17a1.61,1.61,0,0,1-1.39-.8l-3.87-6.68a.91.91,0,0,0-.2-.24,8.91,8.91,0,0,0-5.48-1.86H348.66a8.91,8.91,0,0,0-5.48,1.86.91.91,0,0,0-.2.24l-3.87,6.68a1.63,1.63,0,0,1-1.39.8H321.38a1.71,1.71,0,0,1-.5-.1,7.88,7.88,0,0,1-5.49-5.73,118.92,118.92,0,0,1-2.65-20.78c0-.63.88-2.47,2.3-5.24l.36-.7a48.49,48.49,0,0,1,4.66-5.35.9.9,0,0,0,.15-.19c.44-.85,2.62-4.52,4.73-8.07,1.92-3.21,3.89-6.53,4.5-7.64,2.19-4,5.83-4.11,9.69-4.27l1.2-.05,10.1-.5,5-.26a92.06,92.06,0,0,1,9.25,0l18.63.94a1,1,0,0,1,.24,0c.38.05.74.08,1.1.1,1.92.13,3.74.26,5.78,4.05.65,1.22,2.89,5,5.06,8.61,1.94,3.25,3.77,6.32,4.17,7.09a1.33,1.33,0,0,0,.14.19,49.17,49.17,0,0,1,4.67,5.35l.35.68c1.43,2.78,2.31,4.63,2.31,5.26a118.92,118.92,0,0,1-2.65,20.78,7.88,7.88,0,0,1-5.49,5.73A1.93,1.93,0,0,1,398.51,265Zm-38.46-58.24c-1.53,0-3.05,0-4.56.11l-5,.25-10.09.51-1.21.05c-3.8.16-7.07.29-9.06,3.89-.61,1.11-2.6,4.44-4.51,7.66-2.11,3.53-4.28,7.19-4.72,8a1.64,1.64,0,0,1-.26.37,47.57,47.57,0,0,0-4.54,5.16l-.36.71a31.82,31.82,0,0,0-2.22,4.9A119.55,119.55,0,0,0,316.12,259a7.13,7.13,0,0,0,5,5.18l.3.07h16.34a.87.87,0,0,0,.74-.43l3.87-6.68a1.61,1.61,0,0,1,.38-.44,9.69,9.69,0,0,1,6-2h22.57a9.69,9.69,0,0,1,5.95,2,1.61,1.61,0,0,1,.38.44l3.87,6.68a.87.87,0,0,0,.74.43h16.34l.3-.07a7.13,7.13,0,0,0,5-5.18,119.55,119.55,0,0,0,2.63-20.61,31.63,31.63,0,0,0-2.23-4.91l-.35-.7h0a47.77,47.77,0,0,0-4.54-5.16,1.83,1.83,0,0,1-.26-.36c-.4-.76-2.22-3.82-4.15-7-2.18-3.65-4.42-7.41-5.08-8.65-1.84-3.42-3.31-3.52-5.17-3.65-.37,0-.75,0-1.14-.1h-.19l-18.63-.94C363.13,206.77,361.59,206.73,360.05,206.73ZM324,224.56a.37.37,0,0,1-.32-.17.35.35,0,0,1,0-.37c3.25-6.39,9.42-14.26,9.48-14.34a.38.38,0,0,1,.26-.14,265.55,265.55,0,0,1,53.21-.13.38.38,0,0,1,.27.17L395.81,224a.36.36,0,0,1,0,.4.35.35,0,0,1-.35.17c-20.08-1.94-70.94,0-71.45,0Zm9.64-14.29a110.93,110.93,0,0,0-9,13.52c5.92-.21,50.82-1.76,70.15,0l-8.43-13.62A267.06,267.06,0,0,0,333.64,210.27Z" style="fill:#263238"></path><path d="M338.43,264.59l-.92,2.1h44.6l-.65-2.1-4.33-7.47s-1.71-2-5.9-2.1-22.57,0-22.57,0a8.74,8.74,0,0,0-5.9,2.1Z" style="fill:#787878"></path><path d="M382.11,267.07h-44.6a.38.38,0,0,1-.31-.17.38.38,0,0,1,0-.36l.92-2.1,0,0,4.32-7.48.08-.1a9.11,9.11,0,0,1,6.18-2.19c.15,0,18.39-.13,22.55,0s6.1,2.15,6.17,2.23l4.37,7.54.69,2.17a.37.37,0,0,1-.05.34A.4.4,0,0,1,382.11,267.07Zm-44-.75H381.6l-.5-1.61-4.29-7.4h0s-1.68-1.79-5.6-1.92c-4.14-.13-22.36,0-22.54,0a8.5,8.5,0,0,0-5.62,2l-4.29,7.4Z" style="fill:#263238"></path><path d="M342.23,239.67s3.55,6.3,4.6,7.35,2.23,1,3.67,1.18,21.25,0,21.25,0a3.91,3.91,0,0,0,2.36-1.45c.79-1.18,3.41-7.08,3.41-7.08Z" style="fill:#263238"></path><path d="M356.65,248.63c-3.16,0-5.69,0-6.19-.06l-.39,0a5,5,0,0,1-3.51-1.26c-1.07-1.07-4.51-7.17-4.65-7.43a.35.35,0,0,1,0-.37.39.39,0,0,1,.32-.19h35.29a.38.38,0,0,1,.32.18.36.36,0,0,1,0,.35c-.11.24-2.65,6-3.45,7.14a4.3,4.3,0,0,1-2.61,1.61C371.24,248.57,362.77,248.63,356.65,248.63ZM342.88,240a58,58,0,0,0,4.21,6.71,4.27,4.27,0,0,0,3,1l.4,0c1.41.13,21,0,21.22,0a3.59,3.59,0,0,0,2.05-1.27c.62-.94,2.48-5,3.14-6.51Z" style="fill:#263238"></path><path d="M345.75,240.52a57.44,57.44,0,0,0,3.68,5.89c.84.84,1.78.84,2.94.94s17,0,17,0a3.13,3.13,0,0,0,1.89-1.15c.63-.95,2.73-5.68,2.73-5.68Z" style="fill:#787878"></path><path d="M357.29,247.77c-2.53,0-4.56,0-5,0l-.31,0a4.08,4.08,0,0,1-2.86-1,56.42,56.42,0,0,1-3.74-6,.42.42,0,0,1,0-.38.4.4,0,0,1,.33-.18H374a.36.36,0,0,1,.31.17.38.38,0,0,1,0,.36c-.09.19-2.12,4.76-2.76,5.73a3.49,3.49,0,0,1-2.14,1.31C369,247.73,362.19,247.77,357.29,247.77Zm-10.9-6.87a47.33,47.33,0,0,0,3.3,5.24,3.31,3.31,0,0,0,2.39.81l.32,0c1.12.1,16.75,0,17,0a2.82,2.82,0,0,0,1.59-1c.48-.72,1.9-3.84,2.46-5.09Z" style="fill:#263238"></path><path d="M374.68,262.36l-.79-2.16a3.4,3.4,0,0,0-3.27-2.25l-21.3.22a3.39,3.39,0,0,0-3.21,2.49l-.53,1.7Z" style="fill:#263238"></path><path d="M374.68,262.74h-29.1a.4.4,0,0,1-.31-.15.37.37,0,0,1,0-.34l.53-1.7a3.79,3.79,0,0,1,3.56-2.76l21.31-.21a3.82,3.82,0,0,1,3.63,2.49l.78,2.17a.38.38,0,0,1,0,.34A.35.35,0,0,1,374.68,262.74Zm-28.6-.75h28.06l-.6-1.66a3,3,0,0,0-2.85-2h-.06l-21.31.21a3,3,0,0,0-2.85,2.22Z" style="fill:#263238"></path><polygon points="345.25 263.41 344.6 265.51 375.82 265.51 375.06 263.41 345.25 263.41" style="fill:#263238"></polygon><path d="M375.82,265.89H344.6a.4.4,0,0,1-.31-.15.37.37,0,0,1-.05-.34l.65-2.1a.38.38,0,0,1,.36-.26h29.81a.37.37,0,0,1,.35.25l.76,2.09a.39.39,0,0,1-.05.35A.37.37,0,0,1,375.82,265.89Zm-30.72-.75h30.18l-.48-1.35H345.52Z" style="fill:#263238"></path><path d="M399.43,227.21s.66-5.12,1.84-5.12,6.43,1.44,6.56,2.49-1.05,2.23-2.1,2.5-3.28.52-3.28.52l-.53,2Z" style="fill:#263238"></path><path d="M401.92,229.94a.35.35,0,0,1-.25-.1l-2.5-2.36a.37.37,0,0,1-.11-.32c.21-1.64.84-5.44,2.21-5.44.93,0,6.75,1.35,6.93,2.82.16,1.26-1.15,2.59-2.38,2.9-.86.21-2.45.42-3.07.5l-.46,1.72a.41.41,0,0,1-.26.27Zm-2.09-2.87,1.89,1.79.37-1.36a.36.36,0,0,1,.31-.27s2.22-.26,3.24-.52,1.92-1.25,1.82-2.08c-.17-.66-4.75-2.16-6.19-2.16C400.88,222.47,400.18,224.46,399.83,227.07Z" style="fill:#263238"></path><path d="M320.46,227.21s-.66-5.12-1.84-5.12-6.43,1.44-6.56,2.49,1.05,2.23,2.1,2.5,3.28.52,3.28.52l.52,2Z" style="fill:#263238"></path><path d="M318,229.94h-.1a.41.41,0,0,1-.26-.27l-.46-1.72c-.62-.08-2.21-.29-3.07-.5-1.23-.31-2.54-1.64-2.38-2.9.18-1.47,6-2.82,6.93-2.82,1.36,0,2,3.8,2.21,5.44a.38.38,0,0,1-.12.32l-2.49,2.36A.35.35,0,0,1,318,229.94Zm.66-7.47c-1.44,0-6,1.5-6.19,2.16-.1.83.93,1.86,1.82,2.08s3.21.52,3.23.52a.36.36,0,0,1,.32.27l.36,1.36,1.9-1.79C319.71,224.46,319,222.47,318.62,222.47Z" style="fill:#263238"></path><path d="M335.67,239a14.43,14.43,0,0,1,3.15,7.09s-11.15-.53-15.48-2.23-4.85-1.84-5-2.63.26-6.42,2-7.34a4.61,4.61,0,0,1,5.24.65c1.71,1.31,3.81,3.28,5,3.68A41.61,41.61,0,0,0,335.67,239Z" style="fill:#fff"></path><path d="M338.82,246.47h0c-.46,0-11.27-.55-15.6-2.25l-1.11-.44c-3.51-1.37-4-1.55-4.11-2.47s.19-6.68,2.16-7.74a5,5,0,0,1,5.65.69c.5.38,1,.81,1.55,1.25a15.53,15.53,0,0,0,3.33,2.36,39.6,39.6,0,0,0,5,.77.39.39,0,0,1,.24.12,14.59,14.59,0,0,1,3.24,7.27.37.37,0,0,1-.09.32A.36.36,0,0,1,338.82,246.47Zm-16.41-12.74a3.92,3.92,0,0,0-1.91.5c-1.44.77-1.91,6.15-1.77,7,.08.49.49.67,3.65,1.9l1.1.44c3.72,1.46,12.72,2,14.89,2.18a14.41,14.41,0,0,0-2.88-6.33,39,39,0,0,1-5.05-.79,15,15,0,0,1-3.56-2.49c-.53-.43-1.05-.86-1.54-1.24A4.79,4.79,0,0,0,322.41,233.73Z" style="fill:#263238"></path><circle cx="324.96" cy="239.39" r="3.07" style="fill:#fff"></circle><path d="M325,242.84a3.45,3.45,0,1,1,3.45-3.45A3.45,3.45,0,0,1,325,242.84Zm0-6.15a2.7,2.7,0,1,0,2.7,2.7A2.71,2.71,0,0,0,325,236.69Z" style="fill:#263238"></path><path d="M333.52,243.24a1.43,1.43,0,1,1-1.42-1.43A1.43,1.43,0,0,1,333.52,243.24Z" style="fill:#fff"></path><path d="M332.1,245a1.8,1.8,0,1,1,1.8-1.8A1.81,1.81,0,0,1,332.1,245Zm0-2.85a1.05,1.05,0,1,0,1,1.05A1.06,1.06,0,0,0,332.1,242.19Z" style="fill:#263238"></path><path d="M384.58,239a14.48,14.48,0,0,0-3.14,7.09s11.15-.53,15.48-2.23,4.85-1.84,5-2.63-.26-6.42-2-7.34a4.61,4.61,0,0,0-5.24.65c-1.71,1.31-3.81,3.28-5,3.68A41.71,41.71,0,0,1,384.58,239Z" style="fill:#fff"></path><path d="M381.44,246.47a.36.36,0,0,1-.37-.44,14.59,14.59,0,0,1,3.24-7.27.37.37,0,0,1,.24-.12,39.86,39.86,0,0,0,5-.77,15.52,15.52,0,0,0,3.32-2.36c.53-.44,1.06-.87,1.56-1.25a5,5,0,0,1,5.65-.69c2,1.06,2.3,6.93,2.16,7.74s-.6,1.1-4.11,2.47l-1.11.44c-4.33,1.7-15.14,2.23-15.6,2.25Zm3.33-7.1a14.41,14.41,0,0,0-2.88,6.33c2.17-.13,11.17-.72,14.89-2.18l1.11-.44c3.15-1.24,3.56-1.41,3.64-1.9.13-.8-.34-6.18-1.77-7a4.26,4.26,0,0,0-4.85.62c-.49.38-1,.81-1.53,1.24a15.06,15.06,0,0,1-3.56,2.49A39,39,0,0,1,384.77,239.37Z" style="fill:#263238"></path><path d="M392.93,239.39a3.08,3.08,0,1,0,3.08-3.07A3.08,3.08,0,0,0,392.93,239.39Z" style="fill:#fff"></path><path d="M396,242.84a3.45,3.45,0,1,1,3.45-3.45A3.44,3.44,0,0,1,396,242.84Zm0-6.15a2.7,2.7,0,1,0,2.7,2.7A2.71,2.71,0,0,0,396,236.69Z" style="fill:#263238"></path><path d="M387.44,243.24a1.43,1.43,0,1,0,1.43-1.43A1.43,1.43,0,0,0,387.44,243.24Z" style="fill:#fff"></path><path d="M388.87,245a1.8,1.8,0,1,1,1.8-1.8A1.81,1.81,0,0,1,388.87,245Zm0-2.85a1.05,1.05,0,1,0,1.05,1.05A1,1,0,0,0,388.87,242.19Z" style="fill:#263238"></path><path d="M398.64,250.69s-12.2,2.36-12.72,2.75a12.4,12.4,0,0,0-1.58,2.63l2.5-.66s5.77.26,7.74-.65S398.64,250.69,398.64,250.69Z" style="fill:#263238"></path><path d="M384.34,256.44a.39.39,0,0,1-.28-.13.35.35,0,0,1-.05-.4,11.21,11.21,0,0,1,1.68-2.77c.54-.4,9.19-2.1,12.88-2.82a.38.38,0,0,1,.39.16.4.4,0,0,1,0,.42c-.09.13-2.18,3.24-4.22,4.2s-7.22.71-7.86.69l-2.44.64Zm13.44-5.2c-4.58.89-11.13,2.24-11.66,2.52a8,8,0,0,0-1.07,1.74l1.69-.45h.11c.06,0,5.71.24,7.57-.62A11.26,11.26,0,0,0,397.78,251.24Z" style="fill:#263238"></path><path d="M322.16,250.69s12.2,2.36,12.73,2.75a12.71,12.71,0,0,1,1.57,2.63l-2.49-.66s-5.77.26-7.74-.65S322.16,250.69,322.16,250.69Z" style="fill:#263238"></path><path d="M336.46,256.44h-.09l-2.44-.64c-.65,0-5.92.21-7.86-.69s-4.13-4.07-4.22-4.2a.4.4,0,0,1,0-.42.36.36,0,0,1,.38-.16c3.7.72,12.35,2.42,12.88,2.82a11.27,11.27,0,0,1,1.69,2.77.39.39,0,0,1-.05.4A.39.39,0,0,1,336.46,256.44ZM334,255h.09l1.7.45a7.78,7.78,0,0,0-1.1-1.76c-.51-.27-7.05-1.61-11.64-2.5a11.42,11.42,0,0,0,3.37,3.18c1.86.86,7.5.62,7.56.62Z" style="fill:#263238"></path><path d="M383.35,241.41l-.11,0-3.2-1.07h-2.52a.38.38,0,0,1,0-.75h2.58l.11,0,3.26,1.09a.37.37,0,0,1,.24.47A.38.38,0,0,1,383.35,241.41Z" style="fill:#263238"></path><path d="M337.12,241.25a.36.36,0,0,1-.32-.19.37.37,0,0,1,.13-.51l2.18-1.24a.49.49,0,0,1,.19-.05l2.94,0a.39.39,0,0,1,.37.38c0,.21-.19.42-.38.37l-2.84,0-2.08,1.19A.34.34,0,0,1,337.12,241.25Z" style="fill:#263238"></path><path d="M392.59,226.74a.39.39,0,0,1-.33-.19.37.37,0,0,1,.14-.51c.34-.2.68-.38,1-.55a.38.38,0,0,1,.5.18.38.38,0,0,1-.17.5c-.34.16-.66.33-1,.52A.45.45,0,0,1,392.59,226.74Z" style="fill:#263238"></path><path d="M378.15,245.36a.41.41,0,0,1-.16,0,.39.39,0,0,1-.19-.5c2.21-4.85,6.89-13.65,13.44-18.07a.37.37,0,1,1,.42.62c-6.4,4.32-11,13-13.17,17.76A.38.38,0,0,1,378.15,245.36Z" style="fill:#263238"></path><path d="M377,248.08a.31.31,0,0,1-.13,0,.37.37,0,0,1-.22-.48s.16-.43.48-1.18a.37.37,0,0,1,.49-.2.37.37,0,0,1,.2.49c-.3.73-.47,1.15-.47,1.16A.37.37,0,0,1,377,248.08Z" style="fill:#263238"></path><path d="M328.42,227.44a.35.35,0,0,1-.2-.05c-.54-.33-1.1-.64-1.66-.91a.38.38,0,0,1,.33-.68c.58.29,1.16.61,1.72.95a.37.37,0,0,1,.13.51A.37.37,0,0,1,328.42,227.44Z" style="fill:#263238"></path><path d="M341.56,245.46a.38.38,0,0,1-.36-.26c-1.44-4.31-4.9-12.27-11.84-17.07a.39.39,0,0,1-.1-.53.38.38,0,0,1,.53-.09c7.11,4.92,10.65,13.05,12.12,17.45a.38.38,0,0,1-.23.48Z" style="fill:#263238"></path><path d="M342.24,247.77a.37.37,0,0,1-.36-.29s-.1-.42-.31-1.12a.38.38,0,0,1,.25-.47.38.38,0,0,1,.47.26c.22.73.32,1.16.32,1.16a.38.38,0,0,1-.28.45Z" style="fill:#263238"></path><path d="M323,233.43a19.58,19.58,0,0,1-1.39-5.43" style="fill:#fff"></path><path d="M323,233.81a.36.36,0,0,1-.34-.24,19.4,19.4,0,0,1-1.43-5.57.38.38,0,0,1,.75,0,19.51,19.51,0,0,0,1.37,5.29.37.37,0,0,1-.21.49A.32.32,0,0,1,323,233.81Z" style="fill:#263238"></path><path d="M397.63,233.28a27.86,27.86,0,0,0,.77-4.35" style="fill:#fff"></path><path d="M397.63,233.65a.2.2,0,0,1-.11,0,.36.36,0,0,1-.25-.46,27.9,27.9,0,0,0,.76-4.28.37.37,0,0,1,.41-.33.38.38,0,0,1,.34.41,28.12,28.12,0,0,1-.79,4.41A.37.37,0,0,1,397.63,233.65Z" style="fill:#263238"></path><path d="M384.28,261.11A.35.35,0,0,1,384,261c-.31-.37-3-3.7-3.19-5.32s2.1-4.23,2.92-4.43c.62-.16,11-2.24,11.5-2.33a.37.37,0,1,1,.14.73c-.11,0-10.86,2.17-11.46,2.33-.44.11-2.49,2.24-2.36,3.63.12,1.12,2,3.7,2.91,4.77l16.7-.75.9-11.77a.37.37,0,0,1,.4-.35.38.38,0,0,1,.35.41l-.93,12.1a.37.37,0,0,1-.36.34l-17.22.78Z" style="fill:#263238"></path><path d="M336.34,261.11h0l-17.22-.78a.37.37,0,0,1-.36-.34l-.93-12.1a.39.39,0,0,1,.35-.41.38.38,0,0,1,.4.35l.9,11.77,16.71.75c.87-1.07,2.78-3.65,2.9-4.77.14-1.39-1.92-3.52-2.36-3.63-.6-.16-11.35-2.31-11.46-2.33a.38.38,0,0,1-.3-.44.39.39,0,0,1,.45-.29c.44.09,10.87,2.17,11.49,2.33.82.2,3.1,2.7,2.92,4.43s-2.87,5-3.18,5.32A.38.38,0,0,1,336.34,261.11Z" style="fill:#263238"></path><path d="M360.45,244l-.85,0-12.66-1a.38.38,0,0,1-.34-.41.39.39,0,0,1,.41-.34l12.65,1a10.15,10.15,0,0,0,1.56,0l11.67-.9a.37.37,0,0,1,.4.34.38.38,0,0,1-.34.41l-11.67.9C361,244,360.73,244,360.45,244Z" style="fill:#263238"></path><path d="M360.45,245.27l-.85,0-11.82-1a.38.38,0,0,1,.06-.75l11.82,1a10.15,10.15,0,0,0,1.56,0l11.26-.87a.38.38,0,0,1,.4.34.37.37,0,0,1-.34.41l-11.26.87C361,245.26,360.73,245.27,360.45,245.27Z" style="fill:#263238"></path><path d="M360.45,246.53l-.85,0-11-.88a.38.38,0,0,1-.35-.41.37.37,0,0,1,.41-.34l11,.88a10.15,10.15,0,0,0,1.56,0l10.69-.83a.38.38,0,0,1,.06.75l-10.69.83C361,246.52,360.73,246.53,360.45,246.53Z" style="fill:#263238"></path><path d="M395.5,224.56h0c-20.08-1.94-70.94,0-71.45,0a.36.36,0,0,1-.33-.17.35.35,0,0,1,0-.37c3.25-6.39,9.42-14.26,9.48-14.34a.38.38,0,0,1,.26-.14,265.55,265.55,0,0,1,53.21-.13.38.38,0,0,1,.27.17L395.81,224a.36.36,0,0,1,0,.4A.36.36,0,0,1,395.5,224.56Zm-61.86-14.29a110.93,110.93,0,0,0-9,13.52c5.92-.21,50.82-1.76,70.15,0l-8.43-13.62A267.06,267.06,0,0,0,333.64,210.27Z" style="fill:#263238"></path></g><g id="freepik--House--inject-2"><rect x="309.04" y="69.97" width="104.58" height="33" style="fill:#fff"></rect><path d="M413.62,103.35H309a.37.37,0,0,1-.37-.38V70a.36.36,0,0,1,.37-.37H413.62A.37.37,0,0,1,414,70v33A.38.38,0,0,1,413.62,103.35Zm-104.2-.75H413.25V70.35H309.42Z" style="fill:#263238"></path><polygon points="361.47 39.86 309.32 69.97 413.62 69.97 361.47 39.86" style="fill:#FFFFFF"></polygon><path d="M413.62,70.35H309.32a.38.38,0,0,1-.36-.28.35.35,0,0,1,.17-.42l52.15-30.11a.37.37,0,0,1,.38,0l52.15,30.11a.35.35,0,0,1,.17.42A.38.38,0,0,1,413.62,70.35Zm-102.9-.75h101.5L361.47,40.29Z" style="fill:#263238"></path><rect x="356.64" y="67.29" width="25.88" height="35.68" style="fill:#fff"></rect><path d="M382.52,103.35H356.64a.37.37,0,0,1-.37-.38V67.29a.37.37,0,0,1,.37-.38h25.88a.38.38,0,0,1,.38.38V103A.38.38,0,0,1,382.52,103.35ZM357,102.6h25.13V67.66H357Z" style="fill:#263238"></path><rect x="356.64" y="67.29" width="25.88" height="1.52" style="fill:#263238"></rect><path d="M382.52,69.18H356.64a.37.37,0,0,1-.37-.37V67.29a.37.37,0,0,1,.37-.38h25.88a.38.38,0,0,1,.38.38v1.52A.38.38,0,0,1,382.52,69.18ZM357,68.43h25.13v-.77H357Z" style="fill:#263238"></path><path d="M376,103H363.12V80.67a6.47,6.47,0,0,1,6.46-6.47h0A6.47,6.47,0,0,1,376,80.67Z" style="fill:#263238"></path><path d="M376,103.35H363.12a.38.38,0,0,1-.38-.38V80.67a6.84,6.84,0,0,1,13.68,0V103A.38.38,0,0,1,376,103.35Zm-12.55-.75h12.18V80.67a6.09,6.09,0,0,0-12.18,0Z" style="fill:#263238"></path><rect x="301.53" y="75.75" width="59.95" height="27.22" style="fill:#fff"></rect><path d="M361.48,103.35h-60a.37.37,0,0,1-.37-.38V75.75a.36.36,0,0,1,.37-.37h60a.37.37,0,0,1,.37.37V103A.38.38,0,0,1,361.48,103.35Zm-59.57-.75H361.1V76.13H301.91Z" style="fill:#263238"></path><rect x="301.53" y="75.75" width="59.95" height="1.21" style="fill:#263238"></rect><path d="M361.48,77.34h-60a.37.37,0,0,1-.37-.38V75.75a.36.36,0,0,1,.37-.37h60a.37.37,0,0,1,.37.37V77A.38.38,0,0,1,361.48,77.34Zm-59.57-.75H361.1v-.46H301.91Z" style="fill:#263238"></path><rect x="308.13" y="78" width="46.75" height="24.98" style="fill:#FFFFFF"></rect><path d="M354.88,103.35H308.13a.38.38,0,0,1-.38-.38V78a.38.38,0,0,1,.38-.38h46.75a.38.38,0,0,1,.38.38v25A.38.38,0,0,1,354.88,103.35Zm-46.38-.75h46V78.37h-46Z" style="fill:#263238"></path><polygon points="331.5 55.84 299.69 74.2 363.32 74.2 331.5 55.84" style="fill:#FFFFFF"></polygon><path d="M363.32,74.58H299.69a.36.36,0,0,1-.36-.28.37.37,0,0,1,.17-.42l31.82-18.37a.35.35,0,0,1,.37,0l31.82,18.37a.38.38,0,0,1,.17.42A.36.36,0,0,1,363.32,74.58Zm-62.23-.75h60.83L331.51,56.27Z" style="fill:#263238"></path><rect x="299.69" y="74.2" width="63.63" height="1.55" style="fill:#fff"></rect><path d="M363.32,76.13H299.69a.37.37,0,0,1-.37-.38V74.2a.37.37,0,0,1,.37-.37h63.63a.37.37,0,0,1,.37.37v1.55A.37.37,0,0,1,363.32,76.13Zm-63.25-.75h62.87v-.8H300.07Z" style="fill:#263238"></path><polygon points="369.58 56.93 353.11 66.44 386.06 66.44 369.58 56.93" style="fill:#FFFFFF"></polygon><path d="M386.06,66.82H353.11a.4.4,0,0,1-.37-.28.38.38,0,0,1,.18-.42l16.47-9.51a.37.37,0,0,1,.38,0l16.47,9.51a.37.37,0,0,1-.18.7Zm-31.55-.75h30.15l-15.08-8.71Z" style="fill:#263238"></path><rect x="353.11" y="66.44" width="32.95" height="1.53" style="fill:#fff"></rect><path d="M386.06,68.35H353.11a.38.38,0,0,1-.38-.38V66.44a.38.38,0,0,1,.38-.37h32.95a.38.38,0,0,1,.37.37V68A.38.38,0,0,1,386.06,68.35Zm-32.58-.75h32.2v-.78h-32.2Z" style="fill:#263238"></path><rect x="309.83" y="80" width="3.79" height="3.79" style="fill:#fff"></rect><path d="M313.62,84.16h-3.79a.36.36,0,0,1-.37-.37V80a.37.37,0,0,1,.37-.37h3.79A.38.38,0,0,1,314,80v3.79A.37.37,0,0,1,313.62,84.16Zm-3.41-.75h3v-3h-3Z" style="fill:#263238"></path><rect x="315.51" y="80" width="3.79" height="3.79" style="fill:#fff"></rect><path d="M319.3,84.16h-3.79a.37.37,0,0,1-.38-.37V80a.38.38,0,0,1,.38-.37h3.79a.38.38,0,0,1,.37.37v3.79A.37.37,0,0,1,319.3,84.16Zm-3.42-.75h3v-3h-3Z" style="fill:#263238"></path><rect x="321.19" y="80" width="3.79" height="3.79" style="fill:#fff"></rect><path d="M325,84.16h-3.79a.37.37,0,0,1-.38-.37V80a.38.38,0,0,1,.38-.37H325a.38.38,0,0,1,.37.37v3.79A.37.37,0,0,1,325,84.16Zm-3.42-.75h3v-3h-3Z" style="fill:#263238"></path><rect x="326.87" y="80" width="3.79" height="3.79" style="fill:#fff"></rect><path d="M330.66,84.16h-3.79a.37.37,0,0,1-.38-.37V80a.38.38,0,0,1,.38-.37h3.79A.38.38,0,0,1,331,80v3.79A.37.37,0,0,1,330.66,84.16Zm-3.42-.75h3v-3h-3Z" style="fill:#263238"></path><rect x="332.55" y="80" width="3.79" height="3.79" style="fill:#fff"></rect><path d="M336.33,84.16h-3.78a.37.37,0,0,1-.38-.37V80a.38.38,0,0,1,.38-.37h3.78a.38.38,0,0,1,.38.37v3.79A.37.37,0,0,1,336.33,84.16Zm-3.41-.75h3v-3h-3Z" style="fill:#263238"></path><rect x="338.23" y="80" width="3.79" height="3.79" style="fill:#fff"></rect><path d="M342,84.16h-3.78a.37.37,0,0,1-.38-.37V80a.38.38,0,0,1,.38-.37H342a.38.38,0,0,1,.38.37v3.79A.37.37,0,0,1,342,84.16Zm-3.41-.75h3v-3h-3Z" style="fill:#263238"></path><rect x="343.91" y="80" width="3.79" height="3.79" style="fill:#fff"></rect><path d="M347.69,84.16h-3.78a.37.37,0,0,1-.38-.37V80a.38.38,0,0,1,.38-.37h3.78a.38.38,0,0,1,.38.37v3.79A.37.37,0,0,1,347.69,84.16Zm-3.41-.75h3v-3h-3Z" style="fill:#263238"></path><rect x="349.59" y="80" width="3.79" height="3.79" style="fill:#fff"></rect><path d="M353.37,84.16h-3.78a.37.37,0,0,1-.38-.37V80a.38.38,0,0,1,.38-.37h3.78a.38.38,0,0,1,.38.37v3.79A.37.37,0,0,1,353.37,84.16ZM350,83.41h3v-3h-3Z" style="fill:#263238"></path><rect x="309.83" y="85.57" width="3.79" height="3.79" style="fill:#fff"></rect><path d="M313.62,89.74h-3.79a.37.37,0,0,1-.37-.38V85.57a.37.37,0,0,1,.37-.37h3.79a.38.38,0,0,1,.37.37v3.79A.38.38,0,0,1,313.62,89.74ZM310.21,89h3V86h-3Z" style="fill:#263238"></path><rect x="315.51" y="85.57" width="3.79" height="3.79" style="fill:#fff"></rect><path d="M319.3,89.74h-3.79a.38.38,0,0,1-.38-.38V85.57a.38.38,0,0,1,.38-.37h3.79a.38.38,0,0,1,.37.37v3.79A.38.38,0,0,1,319.3,89.74ZM315.88,89h3V86h-3Z" style="fill:#263238"></path><rect x="321.19" y="85.57" width="3.79" height="3.79" style="fill:#fff"></rect><path d="M325,89.74h-3.79a.38.38,0,0,1-.38-.38V85.57a.38.38,0,0,1,.38-.37H325a.38.38,0,0,1,.37.37v3.79A.38.38,0,0,1,325,89.74ZM321.56,89h3V86h-3Z" style="fill:#263238"></path><rect x="326.87" y="85.57" width="3.79" height="3.79" style="fill:#fff"></rect><path d="M330.66,89.74h-3.79a.38.38,0,0,1-.38-.38V85.57a.38.38,0,0,1,.38-.37h3.79a.38.38,0,0,1,.37.37v3.79A.38.38,0,0,1,330.66,89.74ZM327.24,89h3V86h-3Z" style="fill:#263238"></path><rect x="332.55" y="85.57" width="3.79" height="3.79" style="fill:#fff"></rect><path d="M336.33,89.74h-3.78a.38.38,0,0,1-.38-.38V85.57a.38.38,0,0,1,.38-.37h3.78a.38.38,0,0,1,.38.37v3.79A.38.38,0,0,1,336.33,89.74ZM332.92,89h3V86h-3Z" style="fill:#263238"></path><rect x="338.23" y="85.57" width="3.79" height="3.79" style="fill:#fff"></rect><path d="M342,89.74h-3.78a.38.38,0,0,1-.38-.38V85.57a.38.38,0,0,1,.38-.37H342a.38.38,0,0,1,.38.37v3.79A.38.38,0,0,1,342,89.74ZM338.6,89h3V86h-3Z" style="fill:#263238"></path><rect x="343.91" y="85.57" width="3.79" height="3.79" style="fill:#fff"></rect><path d="M347.69,89.74h-3.78a.38.38,0,0,1-.38-.38V85.57a.38.38,0,0,1,.38-.37h3.78a.38.38,0,0,1,.38.37v3.79A.38.38,0,0,1,347.69,89.74ZM344.28,89h3V86h-3Z" style="fill:#263238"></path><rect x="349.59" y="85.57" width="3.79" height="3.79" style="fill:#fff"></rect><path d="M353.37,89.74h-3.78a.38.38,0,0,1-.38-.38V85.57a.38.38,0,0,1,.38-.37h3.78a.38.38,0,0,1,.38.37v3.79A.38.38,0,0,1,353.37,89.74ZM350,89h3V86h-3Z" style="fill:#263238"></path><rect x="309.83" y="91.15" width="3.79" height="3.79" style="fill:#fff"></rect><path d="M313.62,95.31h-3.79a.37.37,0,0,1-.37-.38V91.15a.37.37,0,0,1,.37-.38h3.79a.38.38,0,0,1,.37.38v3.78A.38.38,0,0,1,313.62,95.31Zm-3.41-.75h3v-3h-3Z" style="fill:#263238"></path><rect x="315.51" y="91.15" width="3.79" height="3.79" style="fill:#fff"></rect><path d="M319.3,95.31h-3.79a.38.38,0,0,1-.38-.38V91.15a.38.38,0,0,1,.38-.38h3.79a.38.38,0,0,1,.37.38v3.78A.38.38,0,0,1,319.3,95.31Zm-3.42-.75h3v-3h-3Z" style="fill:#263238"></path><rect x="321.19" y="91.15" width="3.79" height="3.79" style="fill:#fff"></rect><path d="M325,95.31h-3.79a.38.38,0,0,1-.38-.38V91.15a.38.38,0,0,1,.38-.38H325a.38.38,0,0,1,.37.38v3.78A.38.38,0,0,1,325,95.31Zm-3.42-.75h3v-3h-3Z" style="fill:#263238"></path><rect x="326.87" y="91.15" width="3.79" height="3.79" style="fill:#fff"></rect><path d="M330.66,95.31h-3.79a.38.38,0,0,1-.38-.38V91.15a.38.38,0,0,1,.38-.38h3.79a.38.38,0,0,1,.37.38v3.78A.38.38,0,0,1,330.66,95.31Zm-3.42-.75h3v-3h-3Z" style="fill:#263238"></path><rect x="332.55" y="91.15" width="3.79" height="3.79" style="fill:#fff"></rect><path d="M336.33,95.31h-3.78a.38.38,0,0,1-.38-.38V91.15a.38.38,0,0,1,.38-.38h3.78a.38.38,0,0,1,.38.38v3.78A.38.38,0,0,1,336.33,95.31Zm-3.41-.75h3v-3h-3Z" style="fill:#263238"></path><rect x="338.23" y="91.15" width="3.79" height="3.79" style="fill:#fff"></rect><path d="M342,95.31h-3.78a.38.38,0,0,1-.38-.38V91.15a.38.38,0,0,1,.38-.38H342a.38.38,0,0,1,.38.38v3.78A.38.38,0,0,1,342,95.31Zm-3.41-.75h3v-3h-3Z" style="fill:#263238"></path><rect x="343.91" y="91.15" width="3.79" height="3.79" style="fill:#fff"></rect><path d="M347.69,95.31h-3.78a.38.38,0,0,1-.38-.38V91.15a.38.38,0,0,1,.38-.38h3.78a.38.38,0,0,1,.38.38v3.78A.38.38,0,0,1,347.69,95.31Zm-3.41-.75h3v-3h-3Z" style="fill:#263238"></path><rect x="349.59" y="91.15" width="3.79" height="3.79" style="fill:#fff"></rect><path d="M353.37,95.31h-3.78a.38.38,0,0,1-.38-.38V91.15a.38.38,0,0,1,.38-.38h3.78a.38.38,0,0,1,.38.38v3.78A.38.38,0,0,1,353.37,95.31ZM350,94.56h3v-3h-3Z" style="fill:#263238"></path><rect x="309.83" y="96.72" width="3.79" height="3.79" style="fill:#fff"></rect><path d="M313.62,100.88h-3.79a.37.37,0,0,1-.37-.38V96.72a.37.37,0,0,1,.37-.38h3.79a.38.38,0,0,1,.37.38v3.78A.38.38,0,0,1,313.62,100.88Zm-3.41-.75h3v-3h-3Z" style="fill:#263238"></path><rect x="315.51" y="96.72" width="3.79" height="3.79" style="fill:#fff"></rect><path d="M319.3,100.88h-3.79a.38.38,0,0,1-.38-.38V96.72a.38.38,0,0,1,.38-.38h3.79a.38.38,0,0,1,.37.38v3.78A.38.38,0,0,1,319.3,100.88Zm-3.42-.75h3v-3h-3Z" style="fill:#263238"></path><rect x="321.19" y="96.72" width="3.79" height="3.79" style="fill:#fff"></rect><path d="M325,100.88h-3.79a.38.38,0,0,1-.38-.38V96.72a.38.38,0,0,1,.38-.38H325a.38.38,0,0,1,.37.38v3.78A.38.38,0,0,1,325,100.88Zm-3.42-.75h3v-3h-3Z" style="fill:#263238"></path><rect x="326.87" y="96.72" width="3.79" height="3.79" style="fill:#fff"></rect><path d="M330.66,100.88h-3.79a.38.38,0,0,1-.38-.38V96.72a.38.38,0,0,1,.38-.38h3.79a.38.38,0,0,1,.37.38v3.78A.38.38,0,0,1,330.66,100.88Zm-3.42-.75h3v-3h-3Z" style="fill:#263238"></path><rect x="332.55" y="96.72" width="3.79" height="3.79" style="fill:#fff"></rect><path d="M336.33,100.88h-3.78a.38.38,0,0,1-.38-.38V96.72a.38.38,0,0,1,.38-.38h3.78a.38.38,0,0,1,.38.38v3.78A.38.38,0,0,1,336.33,100.88Zm-3.41-.75h3v-3h-3Z" style="fill:#263238"></path><rect x="338.23" y="96.72" width="3.79" height="3.79" style="fill:#fff"></rect><path d="M342,100.88h-3.78a.38.38,0,0,1-.38-.38V96.72a.38.38,0,0,1,.38-.38H342a.38.38,0,0,1,.38.38v3.78A.38.38,0,0,1,342,100.88Zm-3.41-.75h3v-3h-3Z" style="fill:#263238"></path><rect x="343.91" y="96.72" width="3.79" height="3.79" style="fill:#fff"></rect><path d="M347.69,100.88h-3.78a.38.38,0,0,1-.38-.38V96.72a.38.38,0,0,1,.38-.38h3.78a.38.38,0,0,1,.38.38v3.78A.38.38,0,0,1,347.69,100.88Zm-3.41-.75h3v-3h-3Z" style="fill:#263238"></path><rect x="349.59" y="96.72" width="3.79" height="3.79" style="fill:#fff"></rect><path d="M353.37,100.88h-3.78a.38.38,0,0,1-.38-.38V96.72a.38.38,0,0,1,.38-.38h3.78a.38.38,0,0,1,.38.38v3.78A.38.38,0,0,1,353.37,100.88Zm-3.41-.75h3v-3h-3Z" style="fill:#263238"></path><polygon points="416.59 102.97 378.35 102.97 378.35 67.29 397.47 56.93 416.59 67.29 416.59 102.97" style="fill:#fff"></polygon><path d="M416.59,103.35H378.35A.37.37,0,0,1,378,103V67.29a.36.36,0,0,1,.19-.33L397.29,56.6a.38.38,0,0,1,.36,0L416.77,67a.36.36,0,0,1,.19.33V103A.38.38,0,0,1,416.59,103.35Zm-37.86-.75h37.48V67.51L397.47,57.36,378.73,67.51Z" style="fill:#263238"></path><polygon points="419.51 68.81 397.47 56.87 375.43 68.81 374.74 67.54 397.47 55.23 420.19 67.54 419.51 68.81" style="fill:#fff"></polygon><path d="M419.51,69.18a.39.39,0,0,1-.18,0L397.47,57.29,375.61,69.14a.49.49,0,0,1-.29,0,.41.41,0,0,1-.22-.19l-.69-1.26a.38.38,0,0,1,.15-.51L397.29,54.9a.38.38,0,0,1,.36,0l22.72,12.31a.38.38,0,0,1,.16.51L419.84,69a.41.41,0,0,1-.22.19Zm-22-12.69a.41.41,0,0,1,.18,0L419.36,68.3l.33-.61-22.22-12-22.22,12,.33.61,21.71-11.76A.41.41,0,0,1,397.47,56.49Z" style="fill:#263238"></path><polygon points="378.35 67.29 378.35 68.16 397.47 57.8 416.59 68.16 416.59 67.29 397.47 56.93 378.35 67.29" style="fill:#263238"></polygon><path d="M416.59,68.53a.37.37,0,0,1-.18,0L397.47,58.22,378.53,68.49a.38.38,0,0,1-.37,0,.38.38,0,0,1-.18-.32v-.87a.36.36,0,0,1,.19-.33L397.29,56.6a.38.38,0,0,1,.36,0L416.77,67a.36.36,0,0,1,.19.33v.87a.38.38,0,0,1-.18.32A.45.45,0,0,1,416.59,68.53ZM397.47,57.42a.41.41,0,0,1,.18,0l18.56,10.06v0L397.47,57.36,378.73,67.53l18.56-10.06A.41.41,0,0,1,397.47,57.42Z" style="fill:#263238"></path><rect x="398.09" y="79.52" width="6.42" height="4.46" style="fill:#263238"></rect><path d="M404.5,84.35h-6.41a.37.37,0,0,1-.38-.37V79.52a.38.38,0,0,1,.38-.38h6.41a.38.38,0,0,1,.38.38V84A.37.37,0,0,1,404.5,84.35Zm-6-.75h5.67V79.89h-5.67Z" style="fill:#263238"></path><rect x="398.09" y="85.44" width="6.42" height="4.46" style="fill:#263238"></rect><path d="M404.5,90.28h-6.41a.38.38,0,0,1-.38-.38V85.44a.38.38,0,0,1,.38-.37h6.41a.38.38,0,0,1,.38.37V89.9A.38.38,0,0,1,404.5,90.28Zm-6-.75h5.67V85.82h-5.67Z" style="fill:#263238"></path><rect x="398.09" y="73.29" width="6.42" height="4.76" style="fill:#263238"></rect><path d="M404.5,78.43h-6.41a.38.38,0,0,1-.38-.38V73.29a.37.37,0,0,1,.38-.37h6.41a.37.37,0,0,1,.38.37v4.76A.38.38,0,0,1,404.5,78.43Zm-6-.75h5.67v-4h-5.67Z" style="fill:#263238"></path><rect x="390.2" y="73.29" width="6.42" height="4.76" style="fill:#263238"></rect><path d="M396.62,78.43H390.2a.38.38,0,0,1-.37-.38V73.29a.37.37,0,0,1,.37-.37h6.42a.36.36,0,0,1,.37.37v4.76A.37.37,0,0,1,396.62,78.43Zm-6-.75h5.66v-4h-5.66Z" style="fill:#263238"></path><rect x="390.2" y="85.44" width="6.42" height="4.46" style="fill:#263238"></rect><path d="M396.62,90.28H390.2a.38.38,0,0,1-.37-.38V85.44a.38.38,0,0,1,.37-.37h6.42a.37.37,0,0,1,.37.37V89.9A.37.37,0,0,1,396.62,90.28Zm-6-.75h5.66V85.82h-5.66Z" style="fill:#263238"></path><rect x="390.2" y="79.52" width="6.42" height="4.46" style="fill:#263238"></rect><path d="M396.62,84.35H390.2a.37.37,0,0,1-.37-.37V79.52a.38.38,0,0,1,.37-.38h6.42a.37.37,0,0,1,.37.38V84A.36.36,0,0,1,396.62,84.35Zm-6-.75h5.66V79.89h-5.66Z" style="fill:#263238"></path><rect x="398.09" y="91.37" width="6.42" height="4.1" style="fill:#263238"></rect><path d="M404.5,95.85h-6.41a.38.38,0,0,1-.38-.38v-4.1a.38.38,0,0,1,.38-.38h6.41a.38.38,0,0,1,.38.38v4.1A.38.38,0,0,1,404.5,95.85Zm-6-.75h5.67V91.74h-5.67Z" style="fill:#263238"></path><rect x="390.2" y="91.37" width="6.42" height="4.1" style="fill:#263238"></rect><path d="M396.62,95.85H390.2a.38.38,0,0,1-.37-.38v-4.1a.38.38,0,0,1,.37-.38h6.42a.37.37,0,0,1,.37.38v4.1A.37.37,0,0,1,396.62,95.85Zm-6-.75h5.66V91.74h-5.66Z" style="fill:#263238"></path></g></svg>